<?xml version="1.0" encoding="UTF-8"?>
<svg width="88px" height="88px" viewBox="0 0 88 88" version="1.1" xmlns="http://www.w3.org/2000/svg" xmlns:xlink="http://www.w3.org/1999/xlink">
    <!-- Generator: Sketch 55.2 (78181) - https://sketchapp.com -->
    <title>aws</title>
    <desc>Created with Sketch.</desc>
    <g id="Page-1" stroke="none" stroke-width="1" fill="none" fill-rule="evenodd">
        <g id="01_Home" transform="translate(-680.000000, -5072.000000)">
            <g id="aws" transform="translate(680.000000, 5072.000000)">
                <rect id="Rectangle" stroke="#000000" x="0.5" y="0.5" width="87" height="87"></rect>
                <g id="aws-2" transform="translate(5.000000, 21.000000)">
                    <path d="M21.3502538,17.2316625 C21.3502538,18.1763433 21.4517766,18.9423008 21.6294416,19.5040029 C21.8324873,20.065705 22.0862944,20.678471 22.4416244,21.3423008 C22.5685279,21.5465561 22.6192893,21.7508114 22.6192893,21.9295348 C22.6192893,22.1848539 22.4670051,22.4401731 22.1370558,22.6954922 L20.5380711,23.7678327 C20.3096447,23.9210242 20.0812183,23.9976199 19.8781726,23.9976199 C19.6243655,23.9976199 19.3705584,23.8699603 19.1167513,23.6401731 C18.7614213,23.2571944 18.4568528,22.8486837 18.2030457,22.4401731 C17.9492386,22.0061305 17.6954315,21.5210242 17.4162437,20.9337901 C15.4365482,23.2827263 12.9492386,24.4571944 9.95431472,24.4571944 C7.82233503,24.4571944 6.12182741,23.8444284 4.87817259,22.6188965 C3.63451777,21.3933646 3,19.759322 3,17.7167688 C3,15.5465561 3.76142132,13.7848539 5.30964467,12.4571944 C6.85786802,11.1295348 8.91370558,10.465705 11.5279188,10.465705 C12.3908629,10.465705 13.2791878,10.5423008 14.2182741,10.6699603 C15.1573604,10.7976199 16.1218274,11.0018752 17.1370558,11.2316625 L17.1370558,9.36783267 C17.1370558,7.42740714 16.7309645,6.07421565 15.9441624,5.28272629 C15.1319797,4.49123693 13.7614213,4.1082582 11.8071066,4.1082582 C10.9187817,4.1082582 10.0050761,4.21038586 9.06598985,4.4401731 C8.12690355,4.66996033 7.21319797,4.9508114 6.3248731,5.3082582 C5.91878173,5.48698161 5.6142132,5.58910927 5.43654822,5.6401731 C5.25888325,5.69123693 5.1319797,5.71676884 5.03045685,5.71676884 C4.6751269,5.71676884 4.49746193,5.46144969 4.49746193,4.92527948 L4.49746193,3.67421565 C4.49746193,3.26570501 4.54822335,2.95932203 4.6751269,2.78059863 C4.80203046,2.60187523 5.03045685,2.42315182 5.3857868,2.24442842 C6.27411168,1.78485395 7.34010152,1.40187523 8.58375635,1.09549225 C9.82741117,0.763577353 11.1472081,0.610385864 12.5431472,0.610385864 C15.5634518,0.610385864 17.7715736,1.29974757 19.1928934,2.67847097 C20.5888325,4.05719437 21.2994924,6.1508114 21.2994924,8.95932203 L21.2994924,17.2316625 L21.3502538,17.2316625 Z M11.0456853,21.1125135 C11.8832487,21.1125135 12.7461929,20.959322 13.6598985,20.6529391 C14.5736041,20.3465561 15.3857868,19.7848539 16.071066,19.0188965 C16.4771574,18.5337901 16.7817259,17.9976199 16.9340102,17.3848539 C17.0862944,16.772088 17.1878173,16.0316625 17.1878173,15.1635774 L17.1878173,14.0912369 C16.4517766,13.9125135 15.6649746,13.759322 14.8527919,13.6571944 C14.0406091,13.5550667 13.2538071,13.5040029 12.4670051,13.5040029 C10.7664975,13.5040029 9.52284264,13.8359178 8.68527919,14.5252795 C7.84771574,15.2146412 7.44162437,16.1848539 7.44162437,17.4614497 C7.44162437,18.6614497 7.74619289,19.5550667 8.38071066,20.1678327 C8.98984772,20.8061305 9.87817259,21.1125135 11.0456853,21.1125135 L11.0456853,21.1125135 Z M31.4263959,23.8699603 C30.9695431,23.8699603 30.6649746,23.7933646 30.4619289,23.6146412 C30.2588832,23.4614497 30.0812183,23.1040029 29.928934,22.6188965 L23.964467,2.88272629 C23.8121827,2.37208799 23.7360406,2.0401731 23.7360406,1.86144969 C23.7360406,1.45293906 23.9390863,1.22315182 24.3451777,1.22315182 L26.8324873,1.22315182 C27.3147208,1.22315182 27.6446701,1.29974757 27.822335,1.47847097 C28.0253807,1.63166246 28.177665,1.98910927 28.3299492,2.47421565 L32.5939086,19.3763433 L36.5532995,2.47421565 C36.680203,1.96357735 36.8324873,1.63166246 37.035533,1.47847097 C37.2385787,1.32527948 37.5939086,1.22315182 38.0507614,1.22315182 L40.0812183,1.22315182 C40.5634518,1.22315182 40.893401,1.29974757 41.0964467,1.47847097 C41.2994924,1.63166246 41.4771574,1.98910927 41.5786802,2.47421565 L45.5888325,19.5805986 L49.9796954,2.47421565 C50.1319797,1.96357735 50.3096447,1.63166246 50.4873096,1.47847097 C50.6903553,1.32527948 51.0203046,1.22315182 51.4771574,1.22315182 L53.8375635,1.22315182 C54.2436548,1.22315182 54.4720812,1.42740714 54.4720812,1.86144969 C54.4720812,1.98910927 54.4467005,2.11676884 54.4213198,2.26996033 C54.3959391,2.42315182 54.3451777,2.62740714 54.2436548,2.9082582 L48.1269036,22.6444284 C47.9746193,23.1550667 47.7969543,23.4869816 47.5939086,23.6401731 C47.3908629,23.7933646 47.0609137,23.8954922 46.6294416,23.8954922 L44.4467005,23.8954922 C43.964467,23.8954922 43.6345178,23.8188965 43.4314721,23.6401731 C43.2284264,23.4614497 43.0507614,23.1295348 42.9492386,22.6188965 L39.0152284,6.1508114 L35.106599,22.5933646 C34.9796954,23.1040029 34.8274112,23.4359178 34.6243655,23.6146412 C34.4213198,23.7933646 34.0659898,23.8699603 33.6091371,23.8699603 L31.4263959,23.8699603 Z M64.0406091,24.559322 C62.7208122,24.559322 61.4010152,24.4061305 60.1319797,24.0997476 C58.8629442,23.7933646 57.8730964,23.4614497 57.213198,23.078471 C56.8071066,22.8486837 56.5279188,22.5933646 56.4263959,22.3635774 C56.3248731,22.1337901 56.2741117,21.878471 56.2741117,21.6486837 L56.2741117,20.3465561 C56.2741117,19.8103859 56.4771574,19.5550667 56.857868,19.5550667 C57.0101523,19.5550667 57.1624365,19.5805986 57.3147208,19.6316625 C57.4670051,19.6827263 57.6954315,19.7848539 57.9492386,19.8869816 C58.8121827,20.2699603 59.751269,20.5763433 60.7411168,20.7805986 C61.7563452,20.9848539 62.7461929,21.0869816 63.7614213,21.0869816 C65.3604061,21.0869816 66.6040609,20.8061305 67.4670051,20.2444284 C68.3299492,19.6827263 68.786802,18.865705 68.786802,17.8188965 C68.786802,17.1040029 68.5583756,16.5167688 68.1015228,16.0316625 C67.6446701,15.5465561 66.7817259,15.1125135 65.5380711,14.7040029 L61.857868,13.5550667 C60.0050761,12.9678327 58.6345178,12.0997476 57.7969543,10.9508114 C56.9593909,9.82740714 56.5279188,8.57634331 56.5279188,7.24868374 C56.5279188,6.17634331 56.7563452,5.23166246 57.213198,4.41464118 C57.6700508,3.59761991 58.2791878,2.88272629 59.0406091,2.32102416 C59.8020305,1.73379012 60.6649746,1.29974757 61.680203,0.993364587 C62.6954315,0.686981608 63.7614213,0.559322034 64.8781726,0.559322034 C65.4365482,0.559322034 66.0203046,0.584853949 66.5786802,0.661449693 C67.1624365,0.738045438 67.6954315,0.840173098 68.2284264,0.942300757 C68.7360406,1.06996033 69.2182741,1.19761991 69.6751269,1.3508114 C70.1319797,1.50400288 70.4873096,1.65719437 70.7411168,1.81038586 C71.0964467,2.01464118 71.3502538,2.2188965 71.5025381,2.44868374 C71.6548223,2.65293906 71.7309645,2.93379012 71.7309645,3.29123693 L71.7309645,4.49123693 C71.7309645,5.02740714 71.5279188,5.3082582 71.1472081,5.3082582 C70.9441624,5.3082582 70.6142132,5.20613054 70.1827411,5.00187523 C68.7360406,4.33804544 67.1116751,4.00613054 65.3096447,4.00613054 C63.8629442,4.00613054 62.7208122,4.23591778 61.9340102,4.72102416 C61.1472081,5.20613054 60.7411168,5.94655608 60.7411168,6.99336459 C60.7411168,7.7082582 60.9949239,8.32102416 61.5025381,8.80613054 C62.0101523,9.29123693 62.9492386,9.77634331 64.2944162,10.2103859 L67.8984772,11.359322 C69.7258883,11.9465561 71.0456853,12.7635774 71.8324873,13.8103859 C72.6192893,14.8571944 73,16.0571944 73,17.3848539 C73,18.4827263 72.7715736,19.478471 72.3401015,20.3465561 C71.8832487,21.2146412 71.2741117,21.9805986 70.4873096,22.5933646 C69.7005076,23.2316625 68.7614213,23.6912369 67.6700508,24.0231518 C66.5279188,24.3805986 65.3350254,24.559322 64.0406091,24.559322 L64.0406091,24.559322 Z" id="Shape" fill="#FFFFFF" fill-rule="nonzero"></path>
                    <g id="Group" transform="translate(0.000000, 29.559322)" fill="#FF9900">
                        <path d="M69.4784768,7.675 C61.0900662,13.75 48.902649,16.975 38.4235099,16.975 C23.7374172,16.975 10.5046358,11.65 0.509933775,2.8 C-0.280463576,2.1 0.433443709,1.15 1.37682119,1.7 C12.1874172,7.85 25.5221854,11.575 39.315894,11.575 C48.6221854,11.575 58.8463576,9.675 68.2546358,5.775 C69.6569536,5.15 70.855298,6.675 69.4784768,7.675 L69.4784768,7.675 Z" id="Path"></path>
                        <path d="M72.9715232,3.775 C71.9006623,2.425 65.8834437,3.125 63.155298,3.45 C62.339404,3.55 62.2119205,2.85 62.9513245,2.325 C67.744702,-0.975 75.6231788,-0.025 76.5410596,1.075 C77.4589404,2.2 76.2860927,9.925 71.7986755,13.625 C71.1102649,14.2 70.447351,13.9 70.7533113,13.15 C71.7731788,10.675 74.0423841,5.1 72.9715232,3.775 L72.9715232,3.775 Z" id="Path"></path>
                    </g>
                </g>
            </g>
        </g>
    </g>
</svg>