<?xml version="1.0" encoding="UTF-8"?>
<svg width="88px" height="88px" viewBox="0 0 88 88" version="1.1" xmlns="http://www.w3.org/2000/svg" xmlns:xlink="http://www.w3.org/1999/xlink">
    <!-- Generator: Sketch 55.2 (78181) - https://sketchapp.com -->
    <title>Cake</title>
    <desc>Created with Sketch.</desc>
    <g id="Page-1" stroke="none" stroke-width="1" fill="none" fill-rule="evenodd">
        <g id="01_Home" transform="translate(-1160.000000, -5072.000000)">
            <g id="Cake" transform="translate(1160.000000, 5072.000000)">
                <rect id="Rectangle" stroke="#000000" x="0.5" y="0.5" width="87" height="87"></rect>
                <g id="Group-6" transform="translate(7.000000, 10.000000)" fill="#FFFFFF" fill-rule="nonzero">
                    <g id="Group-5" transform="translate(0.000000, 55.000000)">
                        <g id="Group">
                            <path d="M6.08985956,12.5930639 C2.76921259,12.5930639 0.304313801,9.98216428 0.304313801,6.68174185 L0.304313801,6.65020078 C0.304313801,3.38394785 2.72104988,0.706461538 6.18532494,0.706461538 C8.3122247,0.706461538 9.58681646,1.43015385 10.6334954,2.47977053 L9.05444649,4.33456063 C8.18407748,3.53026336 7.29736755,3.03787223 6.16984407,3.03787223 C4.26741695,3.03787223 2.8990799,4.64646675 2.8990799,6.61603129 L2.8990799,6.65020078 C2.8990799,8.61976532 4.23559516,10.2616532 6.16984407,10.2616532 C7.45905666,10.2616532 8.24772107,9.73684485 9.13357094,8.91502477 L10.7126199,10.5393898 C9.55413462,11.8045372 8.26492203,12.5930639 6.08985956,12.5930639" id="Path"></path>
                            <path d="M17.5465646,8.84931421 C17.1285811,8.65043025 16.5790102,8.52076141 15.9838567,8.52076141 C14.9363177,8.52076141 14.2904213,8.94744198 14.2904213,9.73596871 L14.2904213,9.76838592 C14.2904213,10.4403859 14.8391322,10.8346493 15.6277966,10.8346493 C16.771661,10.8346493 17.5465646,10.1968188 17.5465646,9.29176532 L17.5465646,8.84931421 Z M17.4966818,12.3950561 L17.4966818,11.4435671 C16.9015283,12.1164433 16.0801821,12.5597705 14.8864349,12.5597705 C13.2600833,12.5597705 11.9218479,11.6074055 11.9218479,9.86738983 L11.9218479,9.83322034 C11.9218479,7.91184355 13.3555487,7.02518905 15.4016039,7.02518905 C16.2728329,7.02518905 16.9015283,7.17325684 17.5147429,7.38615906 L17.5147429,7.23984355 C17.5147429,6.20687353 16.8860475,5.63124902 15.6604785,5.63124902 C14.7264659,5.63124902 14.0659487,5.81261017 13.2764242,6.10699348 L12.6632097,4.2031395 C13.6144232,3.77470665 14.5492959,3.49697001 16.0148184,3.49697001 C18.6904291,3.49697001 19.8678354,4.90843286 19.8678354,7.29065971 L19.8678354,12.3950561 L17.4966818,12.3950561 L17.4966818,12.3950561 Z" id="Shape"></path>
                        </g>
                        <polygon id="Path" points="27.5377472 12.3950561 25.2809801 8.80025033 24.426092 9.71932203 24.426092 12.3950561 21.9783942 12.3950561 21.9783942 0.409449804 24.426092 0.409449804 24.426092 6.79826858 27.2960736 3.59597392 30.2279787 3.59597392 26.9408736 7.0584824 30.340645 12.3950561"></polygon>
                        <g id="Group" transform="translate(30.012107, 0.073012)">
                            <path d="M4.95129879,5.36198175 C3.93644165,5.36198175 3.27420436,6.10056845 3.08155351,7.23254237 L6.77288136,7.23254237 C6.62667312,6.11546284 5.98249685,5.36198175 4.95129879,5.36198175 M9.1251138,8.79382529 L3.11423535,8.79382529 C3.35504891,9.92579922 4.12909249,10.5163181 5.22565424,10.5163181 C6.04786053,10.5163181 6.64301404,10.2525997 7.31987215,9.61301695 L8.72347119,10.8781643 C7.91588571,11.8962399 6.75568039,12.5200522 5.1929724,12.5200522 C2.5982063,12.5200522 0.678578208,10.6652621 0.678578208,7.97288136 L0.678578208,7.93871186 C0.678578208,5.42681617 2.43651719,3.35824772 4.95043874,3.35824772 C7.83504116,3.35824772 9.15693559,5.64059452 9.15693559,8.13671969 L9.15693559,8.1691369 C9.15693559,8.41533246 9.14145472,8.56340026 9.1251138,8.79382529" id="Shape"></path>
                            <path d="M17.6490538,4.8520678 C17.6490538,3.72009387 16.8767303,3.11292829 15.6348203,3.11292829 L13.7177724,3.11292829 L13.7177724,6.62800522 L15.6838431,6.62800522 C16.9240329,6.62800522 17.6490538,5.87014342 17.6490538,4.88711343 L17.6490538,4.8520678 Z M15.6021385,8.87443025 L13.7186324,8.87443025 L13.7186324,12.3220443 L11.2365327,12.3220443 L11.2365327,0.829705346 L15.8455322,0.829705346 C18.5357637,0.829705346 20.1638354,2.45494654 20.1638354,4.80475619 L20.1638354,4.83629726 C20.1629753,7.49538462 18.132401,8.87443025 15.6021385,8.87443025 L15.6021385,8.87443025 Z" id="Shape"></path>
                        </g>
                        <polygon id="Path" points="59.0705627 12.3950561 59.0705627 7.77954628 54.493385 7.77954628 54.493385 12.3950561 52.0121453 12.3950561 52.0121453 0.90271708 54.493385 0.90271708 54.493385 5.45076402 59.0705627 5.45076402 59.0705627 0.90271708 61.5518024 0.90271708 61.5518024 12.3950561"></polygon>
                        <path d="M70.672616,4.92507953 C70.672616,3.79310561 69.8994324,3.18594003 68.6583826,3.18594003 L66.7404746,3.18594003 L66.7404746,6.70101695 L68.7056852,6.70101695 C69.9475952,6.70101695 70.672616,5.94315515 70.672616,4.96012516 L70.672616,4.92507953 Z M68.6274208,8.94744198 L66.7404746,8.94744198 L66.7404746,12.3950561 L64.2583748,12.3950561 L64.2583748,0.90271708 L68.8673743,0.90271708 C71.5576058,0.90271708 73.1865378,2.52795828 73.1865378,4.87776793 L73.1865378,4.909309 C73.1873976,7.56839635 71.1568232,8.94744198 68.6274208,8.94744198 L68.6274208,8.94744198 Z" id="Shape"></path>
                    </g>
                    <g id="Group-3" transform="translate(9.000000, 0.000000)">
                        <path d="M27.4956511,17.890407 L49.0071797,23.4534121 C52.7507354,21.9312869 55,19.9905773 55,17.890407 L55,8.94248541 C55,4.01007502 42.683841,0 27.4956511,0 C12.3092007,0 0,4.01007502 0,8.94248541 L0,17.890407 C0,22.8246294 12.3092007,26.8292683 27.4956511,26.8292683 L27.4956511,17.890407 Z" id="Path"></path>
                        <path d="M49.0067662,30.4484053 L27.5,24.6829268 L27.5,33.9399625 L49.0067662,39.7073171 C52.7512323,38.1238274 55,36.1219512 55,33.9399625 L55,24.6829268 C55.0017382,26.8649156 52.7512323,28.8667917 49.0067662,30.4484053" id="Path"></path>
                        <path d="M0,26.8292683 L0,35.4163742 C0,40.1562478 12.3111477,44 27.5,44 L27.5,35.4163742 C12.3111477,35.4163742 0,31.5691419 0,26.8292683" id="Path"></path>
                    </g>
                </g>
            </g>
        </g>
    </g>
</svg>