<?xml version="1.0" encoding="UTF-8"?>
<svg width="50px" height="50px" viewBox="0 0 50 50" version="1.1" xmlns="http://www.w3.org/2000/svg" xmlns:xlink="http://www.w3.org/1999/xlink">
    <!-- Generator: sketchtool 55.2 (78181) - https://sketchapp.com -->
    <title>7D03E9A1-43F5-48A6-8B3C-4FDC326460A2</title>
    <desc>Created with sketchtool.</desc>
    <g id="Page-1" stroke="none" stroke-width="1" fill="none" fill-rule="evenodd">
        <g id="01_Home" transform="translate(-356.000000, -5764.000000)">
            <g id="Group-9" transform="translate(0.000000, 5476.000000)">
                <g id="home_footer_icono_email" transform="translate(357.000000, 289.000000)">
                    <circle id="Oval" stroke="#979797" cx="24" cy="24" r="24"></circle>
                    <g id="email-(1)" transform="translate(11.000000, 10.000000)" fill="#9B9B9B" fill-rule="nonzero">
                        <path d="M26.9880165,8.7228768 L26.9880165,21.9294538 C26.9880165,23.622569 25.6567085,25 24.0203429,25 L2.96772956,25 C1.33130799,25 0,23.622569 0,21.9294538 L0,6.63583728 C0,4.94272206 1.33130799,3.56529104 2.96772956,3.56529104 L14.9559992,3.56529104 C15.2344496,3.56529104 15.460134,3.7987942 15.460134,4.08689154 C15.460134,4.37498889 15.2344496,4.60849205 14.9559992,4.60849205 L2.96772956,4.60849205 C1.88725664,4.60843409 1.00826961,5.5179315 1.00826961,6.63583728 L1.00826961,8.18238277 L12.532175,13.9726699 C13.1425142,14.279371 13.8418612,14.2775744 14.450688,13.9676278 L21.0071852,10.6310653 C21.2571241,10.5039686 21.5591568,10.6104331 21.6821097,10.8689151 C21.8049505,11.1274551 21.702051,11.4400097 21.4522242,11.5672223 L14.895727,14.9037848 C14.0065453,15.3563022 12.984552,15.3596636 12.0917293,14.9110872 L1.00826961,9.34207455 L1.00826961,21.9294538 C1.00826961,23.0473595 1.88725664,23.956799 2.96772956,23.956799 L24.0202869,23.956799 C25.1007038,23.956799 25.9796908,23.0473595 25.9796908,21.9294538 L25.9796908,8.7228768 C25.9796908,8.43477946 26.2053752,8.2012763 26.4838257,8.2012763 C26.7622761,8.2012763 26.9880165,8.43483741 26.9880165,8.7228768 Z M7.87441758,16.115173 L2.96123182,21.1985755 C2.64256261,21.5282271 2.87267214,22.0890056 3.31771114,22.0890056 C3.44671364,22.0890056 3.57571613,22.0380626 3.67419046,21.9362346 L8.58737622,16.852832 C8.78426887,16.649118 8.78426887,16.318829 8.58737622,16.115115 C8.39048358,15.911517 8.07125422,15.911517 7.87441758,16.115173 L7.87441758,16.115173 Z M19.1136549,16.115173 C18.9167062,15.911517 18.5975889,15.911517 18.4006402,16.115173 C18.2037476,16.3188869 18.2037476,16.649176 18.4006402,16.8528899 L23.313826,21.9362925 C23.5108307,22.1400065 23.829892,22.1399485 24.0268407,21.9362925 C24.2237333,21.7325785 24.2237333,21.4022895 24.0268407,21.1985755 L19.1136549,16.115173 Z M17.808674,2.9951817 L26.3343777,0.0280282661 C26.7284431,-0.109152666 27.1055919,0.28059882 26.9728924,0.688664279 L24.1050936,9.50979809 C23.9641039,9.9436538 23.3875977,9.99164104 23.1812946,9.58670519 L21.3013759,5.89597595 L17.7343421,3.95098564 C17.3436936,3.73805672 17.3887297,3.14128779 17.808674,2.9951817 Z M19.2454581,3.59583365 L21.5808346,4.86923434 L23.2704704,3.12106128 C23.4674191,2.91740527 23.7865364,2.91740527 23.9834851,3.12106128 C24.1803777,3.32477526 24.1803777,3.65506429 23.9834851,3.85877826 L22.2938493,5.60695132 L23.5246104,8.02329462 L25.6936224,1.35173443 L19.2454581,3.59583365 Z" id="Shape"></path>
                    </g>
                </g>
            </g>
        </g>
    </g>
</svg>