<?xml version="1.0" encoding="UTF-8"?>
<svg width="39px" height="39px" viewBox="0 0 39 39" version="1.1" xmlns="http://www.w3.org/2000/svg" xmlns:xlink="http://www.w3.org/1999/xlink">
    <!-- Generator: Sketch 55.2 (78181) - https://sketchapp.com -->
    <title>home_logo_Whatsapp</title>
    <desc>Created with Sketch.</desc>
    <g id="Page-1" stroke="none" stroke-width="1" fill="none" fill-rule="evenodd">
        <g id="01_Home" transform="translate(-1254.000000, -848.000000)">
            <g id="home_logo_Whatsapp" transform="translate(1254.000000, 848.000000)">
                <circle id="Oval" fill="#4CAF50" cx="19.5" cy="19.5" r="19.5"></circle>
                <g id="logo_Whatsapp" transform="translate(9.000000, 7.000000)" fill-rule="nonzero">
                    <path d="M18.809766,3.16158333 C16.719792,1.14125 13.9698262,0 11.0411126,0 C2.63538388,0 -2.64271712,9.10708333 1.55464732,16.3515 L0,22 L5.80701109,20.4856667 C8.33697961,21.8524167 10.4095372,21.7314167 11.0466126,21.8120833 C20.793408,21.8120833 25.6452643,10.0200833 18.7960162,3.19733333 L18.809766,3.16158333 Z" id="Path" fill="#ECEFF1"></path>
                    <path d="M11.0005852,20 L10.9951506,19.9990902 L10.9806584,19.9990902 C8.09851465,19.9990902 6.25709473,18.6280787 6.07594177,18.5489294 L2.67932363,19.4359475 L3.58961729,16.1198644 L3.37313949,15.7787036 C2.4764323,14.3449185 2,12.6937002 2,10.9933547 C2,2.99381615 11.7324432,-1.00640802 17.3644889,4.64776374 C22.9829482,10.242801 19.0383423,20 11.0005852,20 Z" id="Path" fill="#4CAF50"></path>
                    <path d="M15.494838,12.3889375 L15.4874269,12.4491754 C15.2395688,12.3286996 14.0323929,11.7528252 13.8075914,11.6733111 C13.3028173,11.4909911 13.4452739,11.6443969 12.4760747,12.727073 C12.3319712,12.8836915 12.1886911,12.8957391 11.9441268,12.7873109 C11.6970921,12.6668351 10.904111,12.4138358 9.96537933,11.5946003 C9.23415681,10.9560784 8.74338133,10.1729856 8.59845434,9.93203394 C8.35718384,9.52562884 8.86195795,9.46780045 9.32144238,8.61965067 C9.40378726,8.45098452 9.36179137,8.31846112 9.30085616,8.19878847 C9.2390975,8.07831265 8.74749857,6.89764961 8.54163637,6.42699074 C8.34400866,5.95793821 8.14061681,6.01737295 7.98827878,6.01737295 C7.51397228,5.97721434 7.16730034,5.98363972 6.86180084,6.29366417 C5.53275449,7.71849153 5.86789815,9.18829654 7.00508093,10.7512695 C9.23992095,13.6041369 10.4306279,14.1294115 12.6078265,14.8586918 C13.1957689,15.0410119 13.7318341,15.0153104 14.1559102,14.9558757 C14.6285698,14.882787 15.6109442,14.3767885 15.815983,13.8105522 C16.0259624,13.2443158 16.0259624,12.7744601 15.9642038,12.6660319 C15.9032686,12.5576037 15.7418726,12.4973657 15.494838,12.3889375 L15.494838,12.3889375 Z" id="Path" fill="#FAFAFA"></path>
                </g>
            </g>
        </g>
    </g>
</svg>