<?xml version="1.0" encoding="UTF-8"?>
<svg width="88px" height="88px" viewBox="0 0 88 88" version="1.1" xmlns="http://www.w3.org/2000/svg" xmlns:xlink="http://www.w3.org/1999/xlink">
    <!-- Generator: Sketch 55.2 (78181) - https://sketchapp.com -->
    <title>html5</title>
    <desc>Created with Sketch.</desc>
    <g id="Page-1" stroke="none" stroke-width="1" fill="none" fill-rule="evenodd">
        <g id="01_Home" transform="translate(-440.000000, -5072.000000)">
            <g id="html5" transform="translate(440.000000, 5072.000000)">
                <rect id="Rectangle" stroke="#000000" x="0.5" y="0.5" width="87" height="87"></rect>
                <g id="html-5" transform="translate(21.000000, 10.000000)" fill-rule="nonzero">
                    <polygon id="Path" fill="#E44D26" points="48 13 43.6271099 62.494335 23.970648 68 4.36837443 62.501939 0 13"></polygon>
                    <polygon id="Path" fill="#F16529" points="24 64 40.1909146 59.5267494 44 17 24 17"></polygon>
                    <path d="M15.5375298,29.0040917 L24,29.0040917 L24,23 L9,23 L9.14310153,24.6107668 L10.613451,41.1564696 L24,41.1564696 L24,35.1523779 L16.0842751,35.1523779 L15.5375298,29.0040917 L15.5375298,29.0040917 Z M16.885756,44.1586095 L10.8807362,44.1586095 L11.7187418,53.5859566 L23.9724661,57 L24,56.9924801 L24,50.745683 L23.9737772,50.7526389 L17.3116891,48.9471062 L16.885756,44.1586095 L16.885756,44.1586095 Z" id="Shape" fill="#EBEBEB"></path>
                    <path d="M5,0 L8.04182345,0 L8.04182345,2.97201285 L10.8244453,2.97201285 L10.8244453,0 L13.8664562,0 L13.8664562,9 L10.8246327,9 L10.8246327,5.98628444 L8.04201087,5.98628444 L8.04201087,9 L5.00018742,9 L5.00018742,0 L5,0 Z M17.8663697,2.98461634 L15.1888903,2.98461634 L15.1888903,0 L23.5879215,0 L23.5879215,2.98461634 L20.9087554,2.98461634 L20.9087554,9 L17.8669319,9 L17.8669319,2.98461634 L17.8667445,2.98461634 L17.8663697,2.98461634 Z M24.9208512,0 L28.0925566,0 L30.0435967,3.16236254 L31.9927627,0 L35.16578,0 L35.16578,9 L32.1363263,9 L32.1363263,4.53910787 L30.0435967,7.73909551 L29.9911192,7.73909551 L27.8970777,4.53910787 L27.8970777,9 L24.9208512,9 L24.9208512,0 Z M36.6795698,0 L39.7223303,0 L39.7223303,6.02520697 L44,6.02520697 L44,9 L36.6793824,9 L36.6793824,0 L36.6795698,0 Z" id="Shape" fill="#FFFFFF"></path>
                    <path d="M24.0001875,41.1579756 L31.3737235,41.1579756 L30.6784996,48.9454982 L24,50.7530608 L24,57 L36.2757272,53.5884936 L36.3657238,52.5739723 L37.773046,36.7657904 L37.919103,35.1533859 L24.0001875,35.1533859 L24.0001875,41.1579756 Z M24.0001875,28.9899247 L24.0001875,29.0045897 L38.4639576,29.0045897 L38.5839531,27.6550283 L38.8569429,24.6109004 L39,23 L24.0001875,23 L24.0001875,28.9901127 L24.0001875,28.9899247 Z" id="Shape" fill="#FFFFFF"></path>
                </g>
            </g>
        </g>
    </g>
</svg>