<?xml version="1.0" encoding="UTF-8"?>
<svg width="125px" height="30px" viewBox="0 0 125 30" version="1.1" xmlns="http://www.w3.org/2000/svg" xmlns:xlink="http://www.w3.org/1999/xlink">
    <!-- Generator: Sketch 55.2 (78181) - https://sketchapp.com -->
    <title>La Segunda</title>
    <desc>Created with Sketch.</desc>
    <defs>
        <linearGradient x1="49.9262308%" y1="0.284761282%" x2="49.9262308%" y2="100.257292%" id="linearGradient-1">
            <stop stop-color="#961917" offset="0%"></stop>
            <stop stop-color="#6B170F" offset="100%"></stop>
        </linearGradient>
        <linearGradient x1="50%" y1="0.0448933782%" x2="50%" y2="100.022447%" id="linearGradient-2">
            <stop stop-color="#961917" offset="0%"></stop>
            <stop stop-color="#6B170F" offset="100%"></stop>
        </linearGradient>
    </defs>
    <g id="Page-1" stroke="none" stroke-width="1" fill="none" fill-rule="evenodd">
        <g id="02_Servicios" transform="translate(-145.000000, -1465.000000)" fill-rule="nonzero">
            <g id="La-Segunda" transform="translate(145.000000, 1465.000000)">
                <rect id="Rectangle" fill="#FFFFFF" x="0" y="0" width="125" height="30"></rect>
                <polygon id="Path" fill="#A1A0A0" points="30 1.07194245 124 1 124 10.9280576 30 11"></polygon>
                <rect id="Rectangle" fill="url(#linearGradient-1)" x="30" y="11" width="94" height="18"></rect>
                <polygon id="Path" fill="#A1A0A0" points="5.89717925 23.9424084 5.89717925 1 1 1 1 29 1.75705187 29 5.7788899 29 27 29 27 23.9424084"></polygon>
                <path d="M38.8974359,5.4544186 C38.3347868,5.16251379 37.71141,5.00529586 37.0769231,4.99527856 C35.7435897,4.99527856 35.2820513,5.81152752 35.2820513,6.55125313 C35.2820513,7.29097875 35.9487179,7.97968881 36.974359,7.97968881 C37.2586005,7.98970829 37.540796,7.92829883 37.7948718,7.80113435 L37.7948718,7.23996319 L37.0769231,7.23996319 L37.0769231,6.34719089 L39,6.34719089 L39,8.33679772 C38.6410256,8.71941442 37.7435897,9 36.9487179,9 C35.2307692,9 34,7.95418103 34,6.50023757 C34,5.04629412 35.2307692,4.00047515 36.974359,4.00047515 C37.6353914,3.99106648 38.2908897,4.12148487 38.8974359,4.38309184 L38.8974359,5.4544186 Z" id="Path" fill="#FFFFFF"></path>
                <path d="M41,4 L41,9 L42.1428571,9 L42.1428571,6.98429319 L42.4761905,6.98429319 C43.0714286,6.98429319 43.2619048,7.92670157 43.7619048,9 L45,9 C44.3571429,7.53403141 44.2142857,6.93193717 43.7619048,6.67015707 C44.2332708,6.4827877 44.5474058,5.99087706 44.547619,5.43979058 C44.547619,4.68062827 43.9761905,4 43.047619,4 L41,4 Z M42.1428571,4.91623037 L42.7142857,4.91623037 C43.1428571,4.91623037 43.3571429,5.09947644 43.3571429,5.4921466 C43.3571429,5.88481675 43.047619,6.06806283 42.7380952,6.06806283 L42.1428571,6.06806283 L42.1428571,4.91623037 Z" id="Shape" fill="#FFFFFF"></path>
                <path d="M49,4 L49,6.80927835 C49,8.43298969 47.8743455,9 46.486911,9 C45.0994764,9 44,8.32989691 44,6.80927835 L44,4 L45.2303665,4 L45.2303665,6.83505155 C45.2303665,7.53092784 45.7539267,7.96907216 46.486911,7.96907216 C47.2198953,7.96907216 47.7434555,7.63402062 47.7434555,6.75773196 L47.7434555,4 L49,4 Z" id="Path" fill="#FFFFFF"></path>
                <path d="M51,4 L51,9 L52.2702703,9 L52.2702703,7.0104712 L53.2972973,7.0104712 C54.4864865,7.0104712 55,6.19895288 55,5.4921466 C55,4.78534031 54.4864865,4 53.2972973,4 L51,4 Z M52.2702703,4.91623037 L52.7297297,4.91623037 C53.4324324,4.91623037 53.6756757,5.07329843 53.6756757,5.4921466 C53.6756757,5.91099476 53.4594595,6.06806283 52.8648649,6.06806283 L52.2702703,6.06806283 L52.2702703,4.91623037 Z" id="Shape" fill="#FFFFFF"></path>
                <path d="M61,6.51269036 C61,5.34517766 60.1552511,4 58.5114155,4 C56.8675799,4 56,5.31979695 56,6.51269036 C56,7.70558376 56.913242,9 58.5114155,9 C60.109589,9 61,7.75634518 61,6.51269036 M59.8812785,6.51269036 C59.8812785,7.40101523 59.3333333,7.98477157 58.5114155,7.98477157 C57.6894977,7.98477157 57.1187215,7.40101523 57.1187215,6.51269036 C57.1187215,5.62436548 57.6666667,5.01522843 58.5114155,5.01522843 C58.8782713,4.98537295 59.2389211,5.13261304 59.501198,5.41932021 C59.7634748,5.70602738 59.9019658,6.10442181 59.8812785,6.51269036" id="Shape" fill="#FFFFFF"></path>
                <path d="M67.0275229,4 L65.766055,4 L64,9 L65.146789,9 L65.4908257,8.03141361 L67.440367,8.03141361 L67.8073394,9 L69,9 L67.0275229,4 Z M67.1192661,7.14136126 L65.766055,7.14136126 L66.4082569,5.20418848 L67.1192661,7.14136126 Z" id="Shape" fill="#FFFFFF"></path>
                <path d="M73.7808219,5.34513044 C73.2662632,5.08578968 72.6947745,4.93825025 72.109589,4.91367351 C71.6438356,4.91367351 71.3424658,5.06595242 71.3424658,5.2943708 C71.3424658,6.03038557 74,5.82734701 74,7.52779493 C74,8.46684826 73.1506849,8.99982447 72,8.99982447 C71.3372165,9.00601589 70.6846467,8.84831587 70.109589,8.54298771 L70.109589,7.47703529 C70.8493151,7.93387204 71.3150685,8.11153078 71.890411,8.11153078 C72.4657534,8.11153078 72.6575342,7.93387204 72.6575342,7.65469403 C72.6575342,6.86791962 70,7.14709763 70,5.39589008 C70,4.55835603 70.7671233,4 72,4 C72.6150158,4.01603222 73.2204149,4.14545212 73.7808219,4.38069729 L73.7808219,5.34513044 Z" id="Path" fill="#FFFFFF"></path>
                <polygon id="Path" fill="#FFFFFF" points="79 9 75 9 75 4 78.943662 4 78.943662 4.91623037 76.3521127 4.91623037 76.3521127 5.96335079 78.8028169 5.96335079 78.8028169 6.87958115 76.3521127 6.87958115 76.3521127 8.08376963 79 8.08376963"></polygon>
                <path d="M83.8974359,5.45427765 C83.3347868,5.16236124 82.71141,5.00513707 82.0769231,4.99511936 C80.7435897,4.99511936 80.2564103,5.81140077 80.2564103,6.55115579 C80.2564103,7.29091081 80.9487179,7.97964825 81.974359,7.97964825 C82.2500861,7.98647612 82.5232065,7.92512181 82.7692308,7.80108669 L82.7692308,7.23989322 L82.0769231,7.23989322 L82.0769231,6.34708544 L84,6.34708544 L84,8.33677136 C83.6410256,8.71940327 82.7179487,9 81.9487179,9 C80.2307692,9 79,7.95413945 79,6.5001382 C79,5.04613695 80.2051282,4.0002764 81.974359,4.0002764 C82.6351777,3.99316114 83.2902002,4.12349004 83.8974359,4.38290831 L83.8974359,5.45427765 Z" id="Path" fill="#FFFFFF"></path>
                <path d="M91,4 L91,6.80927835 C91,8.43298969 89.8802083,9 88.5,9 C87.1197917,9 86,8.32989691 86,6.80927835 L86,4 L87.25,4 L87.25,6.83505155 C87.25,7.53092784 87.7708333,7.96907216 88.4739583,7.96907216 C89.1770833,7.96907216 89.75,7.63402062 89.75,6.75773196 L89.75,4 L91,4 Z" id="Path" fill="#FFFFFF"></path>
                <path d="M92,4 L92,9 L93.1428571,9 L93.1428571,6.98429319 L93.4761905,6.98429319 C94.0952381,6.98429319 94.2619048,7.92670157 94.7619048,9 L96,9 C95.3571429,7.53403141 95.2142857,6.93193717 94.7619048,6.67015707 C95.2332708,6.4827877 95.5474058,5.99087706 95.547619,5.43979058 C95.547619,4.68062827 94.9761905,4 94.047619,4 L92,4 Z M93.1428571,4.91623037 L93.7142857,4.91623037 C94.1428571,4.91623037 94.3571429,5.09947644 94.3571429,5.4921466 C94.3571429,5.88481675 94.0714286,6.06806283 93.7380952,6.06806283 L93.1428571,6.06806283 L93.1428571,4.91623037 Z" id="Shape" fill="#FFFFFF"></path>
                <path d="M100.050459,4 L98.766055,4 L97,9 L98.1697248,9 L98.4908257,8.03141361 L100.463303,8.03141361 L100.807339,9 L102,9 L100.050459,4 Z M100.142202,7.14136126 L98.7889908,7.14136126 L99.4311927,5.20418848 L100.142202,7.14136126 Z" id="Shape" fill="#FFFFFF"></path>
                <path d="M104,4 L104,9 L106.078947,9 C108.078947,9 109,7.95287958 109,6.51308901 C109,5.07329843 108.052632,4 106.210526,4 L104,4 Z M105.263158,4.91623037 L106.052632,4.91623037 C107.263158,4.91623037 107.710526,5.64921466 107.710526,6.51308901 C107.710526,7.37696335 107.342105,8.08376963 106.078947,8.08376963 L105.263158,8.08376963 L105.263158,4.91623037 Z" id="Shape" fill="#FFFFFF"></path>
                <path d="M114,6.51269036 C114,5.34517766 113.155251,4 111.488584,4 C109.821918,4 109,5.31979695 109,6.51269036 C109,7.70558376 109.890411,9 111.488584,9 C113.086758,9 114,7.75634518 114,6.51269036 M112.881279,6.51269036 C112.881279,7.40101523 112.333333,7.98477157 111.488584,7.98477157 C110.643836,7.98477157 110.118721,7.40101523 110.118721,6.51269036 C110.098034,6.10442181 110.236525,5.70602738 110.498802,5.41932021 C110.761079,5.13261304 111.121729,4.98537295 111.488584,5.01522843 C112.333333,5.01522843 112.881279,5.62436548 112.881279,6.51269036" id="Shape" fill="#FFFFFF"></path>
                <path d="M116,4 L116,9 L117.119048,9 L117.119048,6.98429319 L117.452381,6.98429319 C118.071429,6.98429319 118.261905,7.92670157 118.738095,9 L120,9 C119.357143,7.53403141 119.214286,6.93193717 118.738095,6.67015707 C119.209461,6.4827877 119.523596,5.99087706 119.52381,5.43979058 C119.52381,4.68062827 118.97619,4 118.02381,4 L116,4 Z M117.119048,4.91623037 L117.714286,4.91623037 C118.119048,4.91623037 118.357143,5.09947644 118.357143,5.4921466 C118.357143,5.88481675 118.047619,6.06806283 117.738095,6.06806283 L117.119048,6.06806283 L117.119048,4.91623037 Z" id="Shape" fill="#FFFFFF"></path>
                <path d="M9.01421801,1 C8.47582185,1.00615127 7.96231423,1.2264453 7.58832254,1.61170711 C7.21433085,1.99696892 7.01099218,2.51512311 7.02369668,3.05050505 L7.02369668,8.49494949 L16.3364929,8.49494949 L16.3364929,5.76094276 C16.3364929,5.39647202 16.6335551,5.1010101 17,5.1010101 C17.3612465,5.11320017 17.651251,5.40164241 17.6635071,5.76094276 L17.6635071,7.85858586 C17.6145412,8.2257712 17.4178611,8.55747563 17.1184834,8.77777778 L7.75829384,13.8922559 C7.29420479,14.1955386 7.01046367,14.7070488 7,15.2592593 L7,22 L27,22 L27,14.5050505 L17.6635071,14.5050505 L17.6635071,17.9461279 C17.6569635,18.3105987 17.3545965,18.6007845 16.9881517,18.5942761 C16.6217068,18.5877677 16.3299492,18.2870297 16.3364929,17.9225589 L16.3364929,15.1885522 C16.3854588,14.8213668 16.5821389,14.4896624 16.8815166,14.2693603 L26.2417062,9.15488215 C26.6999342,8.8491055 26.9752845,8.33670942 26.9763033,7.78787879 L26.9763033,3.05050505 C26.9890078,2.51512311 26.7856692,1.99696892 26.4116775,1.61170711 C26.0376858,1.2264453 25.5241781,1.00615127 24.985782,1 L9.01421801,1 Z" id="Path" fill="url(#linearGradient-2)"></path>
                <path d="M38.6542478,23.7214765 C38.5715314,23.7214765 38.4922029,23.6870057 38.4337135,23.6256474 C38.3752242,23.564289 38.3423652,23.4810692 38.3423652,23.3942953 L38.3423652,13.4781879 L34,13.4781879 L34,24.1493289 C34,24.8582178 34.5477972,25.4328859 35.2235394,25.4328859 L40.1176969,25.4328859 L40.1176969,23.7214765 L38.6542478,23.7214765 Z M49.4981654,25.4328859 L49.4981654,16.8758389 C49.5046106,16.5310789 49.3785532,16.198098 49.1483928,15.9519133 C48.9182324,15.7057287 48.6033286,15.5671141 48.274626,15.5671141 L41.7730737,15.5671141 C41.442208,15.5671141 41.1248938,15.7049972 40.8909365,15.9504307 C40.6569792,16.1958642 40.5255433,16.5287435 40.5255433,16.8758389 L40.5255433,18.9899329 L44.6040079,18.9899329 L44.6040079,17.7063758 C44.5968754,17.5907704 44.637549,17.4775427 44.7156351,17.3956263 C44.7937212,17.3137099 44.9016545,17.2710411 45.0118544,17.2785235 C45.2371017,17.2785235 45.4197008,17.4700795 45.4197008,17.7063758 L45.4197008,19.5939597 L41.7490827,19.5939597 C41.0733406,19.5939597 40.5255433,20.1686278 40.5255433,20.8775168 L40.5255433,24.1493289 C40.5255433,24.8582178 41.0733406,25.4328859 41.7490827,25.4328859 L49.4981654,25.4328859 Z M44.9878634,21.3053685 C45.1003189,21.3051648 45.2078647,21.3536802 45.2850794,21.4394473 C45.3622941,21.5252145 45.4023251,21.6406216 45.3957099,21.7583893 L45.3957099,23.2432886 C45.4023251,23.3610563 45.3622941,23.4764633 45.2850794,23.5622305 C45.2078647,23.6479977 45.1003189,23.696513 44.9878634,23.6963094 C44.7587836,23.6829374 44.5796626,23.4839768 44.5800164,23.2432886 L44.5800164,21.7583893 C44.5796626,21.5177011 44.7587836,21.3187404 44.9878634,21.3053685 L44.9878634,21.3053685 Z M76.2001129,23.7466443 C75.9710331,23.733273 75.7919121,23.5343123 75.7922659,23.2936242 L75.7922659,17.7063758 C75.7922659,17.5535189 75.8700015,17.4122733 75.9961896,17.3358448 C76.1223778,17.2594163 76.277848,17.2594163 76.4040361,17.3358448 C76.5302243,17.4122733 76.6079599,17.5535189 76.6079599,17.7063758 L76.6079599,23.2936242 C76.6083137,23.5343123 76.4291927,23.733273 76.2001129,23.7466443 L76.2001129,23.7466443 Z M80.6864239,15.5671141 L72.9613322,15.5671141 C72.6326296,15.5671141 72.3177258,15.7057287 72.0875654,15.9519133 C71.857405,16.198098 71.7313477,16.5310789 71.7377928,16.8758389 L71.7377928,24.1493289 C71.7377928,24.8582178 72.2855901,25.4328859 72.9613322,25.4328859 L76.6079594,25.4328859 L76.6079594,25.8607383 C76.6145909,25.9718265 76.5770961,26.0808396 76.5043779,26.1618926 C76.4316598,26.2429455 76.330205,26.2888082 76.2241039,26.2885906 L74.1848716,26.2885906 L74.1848716,28 L79.4628846,28 C80.1386267,28 80.6864239,27.4253319 80.6864239,26.716443 L80.6864239,15.5671141 Z M85.3646627,15.5671141 L81.2861981,15.5671141 L81.2861981,24.1493289 C81.2861981,24.8582178 81.8339954,25.4328859 82.5097375,25.4328859 L90.2108383,25.4328859 L90.2108383,15.5671141 L86.1803556,15.5671141 L86.1803556,23.2936242 C86.18071,23.5343123 86.001589,23.733273 85.7725092,23.7466443 C85.6600536,23.7468486 85.5525079,23.6983332 85.4752932,23.6125661 C85.3980784,23.5267989 85.3580475,23.4113918 85.3646627,23.2936242 L85.3646627,15.5671141 Z M95.8007338,25.4328859 L99.8791984,25.4328859 L99.8791984,16.8758389 C99.8856436,16.5310789 99.7595863,16.198098 99.5294258,15.9519133 C99.2992654,15.7057287 98.9843617,15.5671141 98.655659,15.5671141 L90.9305673,15.5671141 L90.9305673,25.4077181 L94.9850409,25.4077181 L94.9850409,17.7063758 C94.9850409,17.4700795 95.16764,17.2785235 95.3928874,17.2785235 C95.6181348,17.2785235 95.8007338,17.4700795 95.8007338,17.7063758 L95.8007338,25.4328859 Z M66.6756986,19.6946315 C66.563243,19.6948352 66.4556973,19.6463198 66.3784826,19.5605527 C66.3012678,19.4747855 66.2612369,19.3593784 66.2678521,19.2416107 L66.2678521,17.7567114 C66.2612369,17.6389437 66.3012678,17.5235367 66.3784826,17.4377695 C66.4556973,17.3520023 66.563243,17.303487 66.6756986,17.3036906 C66.9047784,17.3170626 67.0838993,17.5160232 67.0835455,17.7567114 L67.0835455,19.2416107 C67.0838993,19.4822989 66.9047784,19.6812596 66.6756986,19.6946315 L66.6756986,19.6946315 Z M57.1752752,21.6073826 L53.4566751,20.7013423 C52.9448678,20.5447427 52.5930003,20.0525727 52.5930003,19.4932886 L52.5930003,16.8506711 C52.5930003,16.5125188 52.7226044,16.1885686 52.9527791,15.9518378 C53.1829538,15.7151071 53.4942634,15.5855188 53.8165397,15.5922819 L60.318092,15.5922819 C60.9938341,15.5922819 61.5416314,16.1669499 61.5416314,16.8758389 L61.5416314,18.9899329 L57.4631668,18.9899329 L57.4631668,17.7063758 C57.4631668,17.4700795 57.2805677,17.2785235 57.0553203,17.2785235 C56.830073,17.2785235 56.6474739,17.4700795 56.6474739,17.7063758 L56.6474739,18.9899329 C56.6505548,19.1889381 56.7770909,19.362525 56.9593565,19.4177852 L60.6539656,20.2986577 C61.1743101,20.4630385 61.5333612,20.961863 61.5416314,21.5318792 L61.5416314,24.1493289 C61.5416314,24.8582178 60.9938341,25.4328859 60.318092,25.4328859 L53.8165397,25.4328859 C53.1407975,25.4328859 52.5930003,24.8582178 52.5930003,24.1493289 L52.5930003,22.0352349 L56.6714649,22.0352349 L56.6714649,23.3187919 C56.6714649,23.5550883 56.8540639,23.7466443 57.0793113,23.7466443 C57.2951388,23.733303 57.4635412,23.5455987 57.4631668,23.3187919 L57.4631668,22.0100671 C57.4605802,21.8245546 57.3443156,21.661931 57.1752752,21.6073826 L57.1752752,21.6073826 Z M62.1893875,16.8758389 L62.1893875,24.1241611 C62.1829424,24.4689211 62.3089997,24.801902 62.5391601,25.0480867 C62.7693205,25.2942713 63.0842243,25.4328859 63.4129269,25.4328859 L69.9144793,25.4328859 C70.2431819,25.4328859 70.5580856,25.2942713 70.788246,25.0480867 C71.0184065,24.801902 71.1444638,24.4689211 71.1380186,24.1241611 L71.1380186,22.0100671 L67.083545,22.0100671 L67.083545,23.2936242 C67.083545,23.5299205 66.9009459,23.7214764 66.6756986,23.7214764 C66.4504512,23.7214764 66.2678521,23.5299205 66.2678521,23.2936242 L66.2678521,21.4060403 L69.9144793,21.4060403 C70.2431187,21.4128016 70.5605297,21.2805608 70.7952031,21.0391105 C71.0298765,20.7976601 71.1620096,20.4673095 71.1620096,20.1224832 L71.1620096,16.8758389 C71.1620096,16.5287435 71.0305737,16.1958642 70.7966164,15.9504307 C70.5626591,15.7049972 70.2453449,15.5671141 69.9144793,15.5671141 L63.4129269,15.5671141 C63.0842243,15.5671141 62.7693205,15.7057287 62.5391601,15.9519133 C62.3089997,16.198098 62.1829424,16.5310789 62.1893875,16.8758389 L62.1893875,16.8758389 Z M104.893311,17.2281879 C104.660467,17.2540399 104.484164,17.4607502 104.485457,17.7063758 L104.485457,23.2936242 C104.48511,23.5343123 104.664231,23.733273 104.893311,23.7466449 C105.005766,23.7468486 105.113312,23.6983332 105.190527,23.6125661 C105.267742,23.5267989 105.307772,23.4113918 105.301157,23.2936242 L105.301157,17.7063758 C105.3077,17.586181 105.268368,17.4681974 105.191845,17.3784773 C105.115323,17.2887572 105.007905,17.2346805 104.893311,17.2281879 L104.893311,17.2281879 Z M109.379622,25.4077181 L101.65453,25.4077181 C101.330027,25.4077181 101.018815,25.2724866 100.789357,25.031773 C100.559899,24.7910593 100.430991,24.4645816 100.430991,24.1241611 L100.430991,16.8506711 C100.430991,16.5102506 100.559899,16.1837729 100.789357,15.9430592 C101.018815,15.7023456 101.330027,15.5671141 101.65453,15.5671141 L105.301157,15.5671141 L105.301157,13 L109.379622,13 L109.379622,25.4077181 Z M119,25.4077181 L119,16.8506711 C119,16.1417822 118.452203,15.5671141 117.776461,15.5671141 L111.274908,15.5671141 C110.599166,15.5671141 110.051369,16.1417822 110.051369,16.8506711 L110.051369,18.9647651 L114.105843,18.9647651 L114.105843,17.6812081 C114.105843,17.4449117 114.288442,17.2533557 114.513689,17.2533557 C114.733808,17.2658647 114.909611,17.4502914 114.921535,17.6812081 L114.921535,19.5687919 L111.274908,19.5687919 C110.585916,19.5687919 110.027378,20.154728 110.027378,20.8775168 L110.027378,24.1241611 C110.027378,24.4689874 110.159511,24.7993379 110.394184,25.0407883 C110.628858,25.2822387 110.946269,25.4144794 111.274908,25.4077181 L119,25.4077181 Z M114.513689,21.2802013 C114.742776,21.3066065 114.911727,21.5170768 114.897544,21.7583893 L114.897544,23.2181208 C114.938375,23.3908071 114.873072,23.5719791 114.733541,23.6731206 C114.594011,23.7742621 114.409376,23.7742621 114.269846,23.6731206 C114.130315,23.5719791 114.065012,23.3908071 114.105843,23.2181208 L114.105843,21.7583893 C114.0993,21.6381944 114.138632,21.5202108 114.215154,21.4304907 C114.291677,21.3407706 114.399095,21.2866939 114.513689,21.2802013 L114.513689,21.2802013 Z" id="Shape" fill="#FFFFFF"></path>
            </g>
        </g>
    </g>
</svg>