<?xml version="1.0" encoding="UTF-8"?>
<svg width="88px" height="88px" viewBox="0 0 88 88" version="1.1" xmlns="http://www.w3.org/2000/svg" xmlns:xlink="http://www.w3.org/1999/xlink">
    <!-- Generator: Sketch 55.2 (78181) - https://sketchapp.com -->
    <title>PHP</title>
    <desc>Created with Sketch.</desc>
    <defs>
        <path d="M38.561422,40.6996304 C59.7155029,40.6996304 76.8651387,31.6667065 76.8651387,20.5245109 C76.8651387,9.38276087 59.7155029,0.349391304 38.561422,0.349391304 C17.406896,0.349391304 0.257260116,9.38276087 0.257260116,20.5245109 C0.257260116,31.6667065 17.406896,40.6996304 38.561422,40.6996304" id="path-1"></path>
        <radialGradient cx="25.0001452%" cy="0%" fx="25.0001452%" fy="0%" r="123.309796%" gradientTransform="translate(0.250001,0.000000),scale(0.526711,1.000000),translate(-0.250001,-0.000000)" id="radialGradient-3">
            <stop stop-color="#1A1919" offset="0%"></stop>
            <stop stop-color="#4D6589" offset="100%"></stop>
        </radialGradient>
        <path d="M38.561422,40.6996304 C59.7155029,40.6996304 76.8651387,31.6667065 76.8651387,20.5245109 C76.8651387,9.38276087 59.7155029,0.349391304 38.561422,0.349391304 C17.406896,0.349391304 0.257260116,9.38276087 0.257260116,20.5245109 C0.257260116,31.6667065 17.406896,40.6996304 38.561422,40.6996304" id="path-4"></path>
        <radialGradient cx="25.0001452%" cy="0%" fx="25.0001452%" fy="0%" r="61.6543466%" gradientTransform="translate(0.250001,0.000000),scale(0.526711,1.000000),translate(-0.250001,-0.000000)" id="radialGradient-6">
            <stop stop-color="#4D6589" offset="0%"></stop>
            <stop stop-color="#FFFFFE" offset="100%"></stop>
        </radialGradient>
    </defs>
    <g id="Page-1" stroke="none" stroke-width="1" fill="none" fill-rule="evenodd">
        <g id="01_Home" transform="translate(-320.000000, -5072.000000)">
            <g id="PHP" transform="translate(320.000000, 5072.000000)">
                <rect id="Rectangle" stroke="#000000" x="0.5" y="0.5" width="87" height="87"></rect>
                <g transform="translate(6.000000, 23.000000)">
                    <g id="Group-8">
                        <g id="Group-4">
                            <mask id="mask-2" fill="white">
                                <use xlink:href="#path-1"></use>
                            </mask>
                            <g id="Clip-3"></g>
                            <path d="M38.561422,40.6996304 C59.7155029,40.6996304 76.8651387,31.6667065 76.8651387,20.5245109 C76.8651387,9.38276087 59.7155029,0.349391304 38.561422,0.349391304 C17.406896,0.349391304 0.257260116,9.38276087 0.257260116,20.5245109 C0.257260116,31.6667065 17.406896,40.6996304 38.561422,40.6996304" id="Fill-2" fill="url(#radialGradient-3)" mask="url(#mask-2)"></path>
                        </g>
                        <g id="Group-7">
                            <mask id="mask-5" fill="white">
                                <use xlink:href="#path-4"></use>
                            </mask>
                            <g id="Clip-6"></g>
                            <path d="M38.561422,40.6996304 C59.7155029,40.6996304 76.8651387,31.6667065 76.8651387,20.5245109 C76.8651387,9.38276087 59.7155029,0.349391304 38.561422,0.349391304 C17.406896,0.349391304 0.257260116,9.38276087 0.257260116,20.5245109 C0.257260116,31.6667065 17.406896,40.6996304 38.561422,40.6996304" id="Fill-5" fill="url(#radialGradient-6)" mask="url(#mask-5)"></path>
                        </g>
                    </g>
                    <path d="M38.5002207,39 C58.6583633,39 75,30.717057 75,20.4997793 C75,10.282943 58.6583633,2 38.5002207,2 C18.3420781,2 2,10.282943 2,20.4997793 C2,30.717057 18.3420781,39 38.5002207,39" id="Fill-9" fill="#6079A7"></path>
                    <path d="M45.0430732,27.8758442 L46.8342289,18.0429156 C47.2385707,15.8236136 46.902347,14.1678699 45.835164,13.1222596 C44.8020401,12.1097176 43.0475634,11.6178848 40.47174,11.6178848 L37.3697483,11.6178848 L38.2574664,6.74613261 C38.2910888,6.56216108 38.2461134,6.3721348 38.1343299,6.22775209 C38.0225464,6.08336937 37.8566178,6 37.6810828,6 L33.4001247,6 C33.1189194,6 32.8774496,6.21238231 32.8233044,6.50673675 L30.9212386,16.9460727 C30.7483235,15.7709837 30.322149,14.7612362 29.6400951,13.928474 C28.3842775,12.3952227 26.3979374,11.6178848 23.7356565,11.6178848 L15.4374794,11.6178848 C15.156274,11.6178848 14.9148043,11.8302671 14.8610958,12.1246216 L11.0106787,33.2547989 C10.977493,33.4378389 11.0224684,33.6278652 11.1342519,33.7722479 C11.2455987,33.9166306 11.4115273,34 11.5870623,34 L15.9025161,34 C16.1832848,34 16.4251913,33.7876177 16.4788997,33.4932632 L17.4102832,28.3825809 L20.6227484,28.3825809 C22.3082338,28.3825809 23.7243035,28.1874314 24.829912,27.8036528 C25.9604098,27.4114907 27.0009569,26.7463987 27.9183674,25.8307329 C28.658933,25.1046276 29.2715589,24.2914269 29.7427088,23.4144183 L28.973324,27.6369141 C28.9397017,27.8199541 28.9851137,28.0099804 29.0964605,28.1543631 C29.208244,28.2987458 29.3741726,28.3825809 29.5497076,28.3825809 L33.8311024,28.3825809 C34.1123077,28.3825809 34.3537775,28.1701986 34.407486,27.8758442 L36.5204559,16.2772547 L39.4582656,16.2772547 C40.7101533,16.2772547 41.0765062,16.5431984 41.1760633,16.6573073 C41.2668874,16.7616355 41.4550854,17.1291127 41.2441814,18.2874347 L39.5407932,27.6369141 C39.5071708,27.8204198 39.5525829,28.0099804 39.6639297,28.1543631 C39.7757132,28.2987458 39.9420785,28.3825809 40.1171768,28.3825809 L44.4666896,28.3825809 C44.7474583,28.3825809 44.9893648,28.1701986 45.0430732,27.8758442 Z M25.1940816,19.7512891 C24.9251026,21.2253901 24.4181471,22.2765894 23.6876245,22.8764763 C22.9453123,23.4861439 21.7576128,23.7958681 20.158585,23.7958681 L18.2456028,23.7958681 L19.6289234,16.2050634 L22.1016963,16.2050634 C23.918178,16.2050634 24.6500105,16.6191157 24.9438788,16.9661 C25.3512772,17.4476862 25.4377347,18.4113244 25.1940816,19.7512891 L25.1940816,19.7512891 Z" id="Fill-10" fill="#FFFFFE"></path>
                    <path d="M64.6292852,12.271142 C63.3741818,10.7640669 61.3889712,10 58.7282043,10 L50.4347461,10 C50.1537007,10 49.9123682,10.2087565 49.8586903,10.4980856 L46.0108992,31.2675212 C45.977296,31.4474363 46.0222458,31.6342184 46.1339657,31.7761362 C46.2452492,31.9180539 46.4115198,32 46.5865186,32 L50.8995184,32 C51.1801274,32 51.4218963,31.7912435 51.4755742,31.5019144 L52.406428,26.4784834 L55.61663,26.4784834 C57.3015933,26.4784834 58.7164213,26.2866656 59.8218375,25.909439 C60.9516925,25.523972 61.9916478,24.8702347 62.9085366,23.9702014 C63.6726834,23.2331447 64.3019808,22.4059014 64.778536,21.5113617 C65.2546549,20.6177376 65.5967971,19.6201931 65.7953618,18.5471117 C66.2858821,15.9005743 65.8935532,13.7892043 64.6292852,12.271142 Z M60.4301874,17.994548 C60.1613613,19.4434826 59.6546941,20.4767355 58.9245869,21.0663809 C58.1826969,21.6656401 56.9961092,21.9700766 55.3975543,21.9700766 L53.4860963,21.9700766 L54.8681939,14.5088647 L57.3395606,14.5088647 C59.1550093,14.5088647 59.8864256,14.9158482 60.1805632,15.2569086 C60.5872935,15.730273 60.6737019,16.6774596 60.4301874,17.994548 L60.4301874,17.994548 Z" id="Fill-11" fill="#FFFFFE"></path>
                    <path d="M21.6046759,14.1560385 C23.2579132,14.1560385 24.3602181,14.4615469 24.9111504,15.0725638 C25.4616423,15.6835806 25.5928796,16.7323605 25.3048622,18.2189036 C25.0036331,19.7671656 24.4245156,20.8714925 23.5653078,21.5336478 C22.7065405,22.1958031 21.3994525,22.5264399 19.6449247,22.5264399 L16.9972789,22.5264399 L18.6227714,14.1560385 L21.6046759,14.1560385 Z M11,31 L15.3524091,31 L16.3846915,25.6824785 L20.1130631,25.6824785 C21.7579328,25.6824785 23.1108217,25.5101065 24.1730509,25.1631582 C25.2357205,24.8179734 26.201063,24.237816 27.0699595,23.4235678 C27.7992511,22.7525955 28.3893784,22.0124099 28.8412222,21.203011 C29.2930659,20.3940529 29.6136724,19.5008927 29.8030416,18.524412 C30.2636932,16.1535257 29.9162228,14.3068089 28.761511,12.9842617 C27.6072395,11.6612736 25.7703582,11 23.2526284,11 L14.88339,11 L11,31 L11,31 Z" id="Fill-12" fill="#1A1919"></path>
                    <path d="M33.8814128,7 L38.1968324,7 L37.1650756,12.3175215 L41.0099543,12.3175215 C43.4291247,12.3175215 45.0978065,12.739855 46.0164398,13.5849626 C46.9346329,14.4300703 47.2097387,15.7997884 46.8426376,17.6932352 L45.0370631,27 L40.6525369,27 L42.3691971,18.1508365 C42.5646323,17.1443781 42.4928847,16.4575352 42.1535142,16.0911896 C41.8145838,15.7252849 41.092266,15.5418917 39.9883214,15.5418917 L36.5391549,15.5418917 L34.3158598,27 L30,27 L33.8814128,7" id="Fill-13" fill="#1A1919"></path>
                    <path d="M57.6044328,14.1560385 C59.2581412,14.1560385 60.3600262,14.4615469 60.9109688,15.0725638 C61.4614709,15.6835806 61.5927106,16.7323605 61.3042475,18.2189036 C61.0034531,19.7671656 60.4243249,20.8714925 59.5651012,21.5336478 C58.7063178,22.1958031 57.3992056,22.5264399 55.6446451,22.5264399 L52.9969501,22.5264399 L54.6220324,14.1560385 L57.6044328,14.1560385 Z M47,31 L51.3520497,31 L52.3843513,25.6824785 L56.1123518,25.6824785 C57.7572521,25.6824785 59.1106066,25.5101065 60.1728555,25.1631582 C61.2351044,24.8179734 62.2009054,24.237816 63.069818,23.4235678 C63.7991232,22.7525955 64.3892615,22.0124099 64.841554,21.203011 C65.2925254,20.3940529 65.6135782,19.5008927 65.802951,18.524412 C66.2636112,16.1535257 65.9165746,14.3068089 64.7618413,12.9842617 C63.6071081,11.6612736 61.7706329,11 59.252416,11 L50.8830219,11 L47,31 L47,31 Z" id="Fill-14" fill="#1A1919"></path>
                </g>
            </g>
        </g>
    </g>
</svg>